<svg width="281" height="74" viewBox="0 0 281 74" fill="none" xmlns="http://www.w3.org/2000/svg">
<path fill-rule="evenodd" clip-rule="evenodd" d="M33.2459 38.9999H25.795L19.584 62.88H19.392L14.0377 38.9999H4.91572L13.632 72.576H24.576L33.2459 38.9999ZM37.2353 38.9999H45.0106L51.168 62.88H51.36L56.8214 38.9999H65.5215L56.928 72.576H45.984L37.2353 38.9999ZM77.5716 38.9999C77.4232 40.3345 77.349 41.7345 77.349 43.2V49.152C77.349 53.376 77.925 57.024 79.077 60.096C80.293 63.168 81.925 65.696 83.973 67.68C86.085 69.6 88.517 71.008 91.269 71.904C94.085 72.864 97.125 73.344 100.389 73.344C105.189 73.344 109.189 72.768 112.389 71.616C115.589 70.528 118.341 69.184 120.645 67.584L116.709 60.576C114.469 62.048 112.101 63.2 109.605 64.032C107.173 64.864 104.229 65.28 100.773 65.28C96.549 65.28 93.125 64 90.501 61.44C87.877 58.816 86.565 55.008 86.565 50.016V49.632H121.893V42.624C121.893 41.3683 121.837 40.1603 121.726 38.9999H112.826C112.855 39.4296 112.869 39.8696 112.869 40.32V42.048H86.565V40.704C86.565 40.1222 86.5925 39.5542 86.6476 38.9999H77.5716ZM91.3236 29.9999H80.2177C81.1815 28.1797 82.3373 26.5957 83.685 25.248C85.733 23.2 88.133 21.664 90.885 20.64C93.637 19.616 96.645 19.104 99.909 19.104C106.629 19.104 111.973 21.152 115.941 25.248C117.287 26.637 118.404 28.2209 119.293 29.9999H108.665C106.44 28.048 103.521 27.072 99.909 27.072C97.989 27.072 96.197 27.424 94.533 28.128C93.36 28.5972 92.2902 29.2212 91.3236 29.9999ZM134.903 38.9999V72.576H144.215V55.008L151.511 47.616L168.215 72.576H179.927L157.943 41.088L160.003 38.9999H148.667L144.215 43.68V38.9999H134.903ZM144.215 29.9999H134.903V0H144.215V29.9999ZM157.228 29.9999H168.879L178.679 20.064H166.679L157.228 29.9999ZM189.964 38.9999V72.576H199.276V38.9999H189.964ZM199.276 29.9999H189.964V20.064H199.276V29.9999ZM215.479 38.9999V72.576H224.792V55.008L232.087 47.616L248.792 72.576H260.504L238.52 41.088L240.579 38.9999H229.243L224.792 43.68V38.9999H215.479ZM224.792 29.9999H215.479V0H224.792V29.9999ZM237.804 29.9999H249.456L259.255 20.064H247.255L237.804 29.9999ZM270.54 38.9999V72.576H279.852V38.9999H270.54ZM279.852 29.9999H270.54V20.064H279.852V29.9999ZM67.825 29.9999H58.8797L61.152 20.064H70.368L67.825 29.9999ZM42.69 29.9999L40.128 20.064H30.72L28.1358 29.9999H42.69ZM12.0198 29.9999L9.792 20.064H0L2.57934 29.9999H12.0198ZM199.564 11.424V1.248H189.676V11.424H199.564ZM280.14 11.424V1.248H270.252V11.424H280.14Z" fill="black"/>
</svg>
